<svg width="457" height="74" viewBox="0 0 457 74" fill="none" xmlns="http://www.w3.org/2000/svg">
<path fill-rule="evenodd" clip-rule="evenodd" d="M223.089 6.99927C219.384 6.99927 216.346 9.99997 216.346 13.8259C216.346 17.5768 219.384 20.5775 223.089 20.5775C226.794 20.5775 229.833 17.5768 229.833 13.8259C229.833 9.99997 226.794 6.99927 223.089 6.99927ZM229.017 24.0281H217.235V64.4626H229.017V24.0281ZM148.47 8.49975H159.956V24.0284H168.773V34.8309H159.956V49.0843C159.956 51.1848 161.586 52.8352 163.586 52.8352H168.699V64.3129H163.586C155.287 64.3129 148.47 57.4863 148.47 49.0093V34.7559H143.135V23.9534H148.47V8.49975ZM196.858 23.1282C191.522 23.1282 187.299 25.3787 185.668 28.9045V8.49975H173.886V64.3879H185.668V41.7326C185.668 37.0065 188.707 33.7057 193.004 33.7057C197.376 33.7057 199.822 36.5563 199.822 41.3575V64.4629H211.604V39.8571C211.604 29.3547 206.268 23.1282 196.858 23.1282ZM245.838 23.9532V29.5045C247.616 25.4535 251.914 23.128 257.323 23.0529C258.138 23.0529 259.176 23.128 260.435 23.278V34.5306C259.25 34.3056 257.916 34.1556 256.508 34.1556C249.765 34.1556 245.838 37.9815 245.838 44.658V64.3877H234.056V23.9532H245.838ZM293.558 29.2796C292.373 25.7538 287.704 23.2782 281.702 23.2782C276.071 23.2782 271.328 25.3037 267.549 29.3547C263.844 33.3306 261.917 38.3568 261.917 44.2082C261.917 50.0595 263.844 55.0107 267.549 59.1367C271.328 63.1126 276.071 65.1381 281.702 65.1381C287.704 65.1381 292.373 62.6625 293.558 59.1367V64.4629H305.34V8.49975H293.558V29.2796ZM291.187 51.4099C289.186 53.3603 286.741 54.2605 283.851 54.2605C281.035 54.2605 278.59 53.2853 276.663 51.4099C274.663 49.3844 273.699 46.9838 273.699 44.2082C273.699 41.4325 274.663 39.0319 276.663 37.0815C278.664 35.056 281.035 34.0808 283.851 34.0808C286.815 34.0808 289.26 35.056 291.187 37.0815C293.262 39.0319 294.299 41.4325 294.299 44.2082C294.299 46.9838 293.262 49.3844 291.187 51.4099ZM339.354 24.1781L350.024 43.3826L357.212 24.0281H368.772L352.322 66.7881L339.354 43.5327L326.386 66.7881L310.01 24.0281H321.57L328.683 43.3826L339.354 24.1781ZM388.185 23.0529C382.109 23.0529 376.996 25.0034 372.994 28.9043C369.067 32.7302 367.066 37.8314 367.066 44.1329V44.508C367.066 50.8095 369.067 55.9107 372.994 59.7366C377.07 63.4874 382.257 65.4379 388.778 65.4379C394.854 65.4379 399.819 64.2376 403.598 61.762V51.3346C399.893 53.9602 395.151 55.2355 389.445 55.2355C383.22 55.2355 379.145 52.1598 378.923 47.3587H408.192C408.34 46.1584 408.415 44.808 408.415 43.4577C408.415 37.6814 406.488 32.8803 402.783 28.9793C399.078 25.0034 394.113 23.0529 388.185 23.0529ZM378.923 39.6318C378.997 37.7564 379.96 36.181 381.738 34.9057C383.591 33.6304 385.666 32.9553 388.185 32.9553C392.853 32.9553 396.484 36.031 396.484 39.6318H378.923ZM436.499 23.2782C442.13 23.2782 446.873 25.3037 450.578 29.3547C454.357 33.4056 456.284 38.2818 456.284 44.1331C456.284 49.9845 454.357 54.9357 450.578 59.0616C446.873 63.0376 442.13 65.063 436.499 65.063C430.497 65.063 425.828 62.5875 424.643 59.0616V64.3879H412.861V8.49975H424.643V29.2796C425.828 25.7538 430.497 23.2782 436.499 23.2782ZM434.35 54.2605C437.166 54.2605 439.537 53.3603 441.538 51.4098C443.538 49.3844 444.502 46.9838 444.502 44.2081C444.502 41.4325 443.538 39.0319 441.538 37.0815C439.611 35.056 437.166 34.0808 434.35 34.0808C431.46 34.0808 429.015 35.056 426.94 37.0815C424.939 39.0319 423.902 41.4325 423.902 44.2081C423.902 46.9838 424.939 49.3844 426.94 51.4098C428.94 53.2853 431.386 54.2605 434.35 54.2605Z" fill="white"/>
<path d="M64.1955 0C64.9393 0.15461 65.6415 0.467199 66.2546 0.916701C66.941 1.46014 67.4667 2.18055 67.7755 3.00065C69.7249 7.87793 71.6742 12.7523 73.6236 17.6236C75.7808 23.0413 77.9489 28.46 80.1277 33.8796C81.2632 36.7211 82.3928 39.5655 83.5459 42.4011C83.7912 42.9811 83.9176 43.6046 83.9176 44.2345C83.9176 44.8644 83.7912 45.4879 83.5459 46.0679L73.6383 70.7834C72.9823 72.4194 71.7938 73.4363 70.0465 73.7016C67.8726 74.0287 65.9281 72.9558 65.1427 71.0487C63.2835 66.477 61.4656 61.8906 59.6329 57.3071L50.3136 33.9916C47.5543 27.0726 44.7911 20.1556 42.0239 13.2406C41.1061 10.9444 40.2177 8.63644 39.2587 6.35795C38.9946 5.73842 38.8697 5.06829 38.8928 4.39502C38.916 3.72174 39.0865 3.06179 39.3925 2.46191C39.6984 1.86202 40.1322 1.33687 40.6632 0.923658C41.1942 0.510441 41.8094 0.219262 42.4652 0.0707422C42.5446 0.0530566 42.6211 0.0235807 42.6976 0H64.1955Z" fill="white"/>
<path d="M25.5845 0C25.8287 0.0677946 26.0729 0.126746 26.3111 0.209279C26.9315 0.403139 27.5006 0.733868 27.9766 1.17714C28.4526 1.62042 28.8233 2.16496 29.0616 2.77074C31.1894 8.05282 33.3075 13.3388 35.4157 18.6288C37.5494 23.9619 39.6831 29.2961 41.8168 34.6312C42.8601 37.2467 43.9083 39.8613 44.9615 42.4748C45.1972 43.0345 45.3187 43.6358 45.3187 44.2433C45.3187 44.8508 45.1972 45.4522 44.9615 46.0119C43.7848 48.9477 42.6081 51.8825 41.4314 54.8163C39.2742 60.1869 37.1169 65.5574 34.9597 70.9279C34.621 71.7641 34.042 72.4806 33.2962 72.9865C32.5504 73.4925 31.6714 73.7649 30.7707 73.7694C29.8166 73.7862 28.8806 73.5073 28.0907 72.9707C27.3008 72.4341 26.6957 71.666 26.3582 70.7717C24.3637 65.7106 22.3281 60.6644 20.3101 55.6122C17.6057 48.7718 14.8876 41.9364 12.1557 35.1058C9.37483 28.1534 6.59493 21.2001 3.81601 14.2457C2.76289 11.6135 1.71858 8.97541 0.65075 6.34616C0.184194 5.25064 0.161568 4.01617 0.587666 2.90422C1.01376 1.79227 1.85511 0.890202 2.9335 0.389082C3.32473 0.230657 3.72682 0.100628 4.13666 0L25.5845 0Z" fill="white"/>
<path d="M121.778 44.9526C121.19 46.9423 120.308 48.8199 119.557 50.7388C117.387 56.1977 115.204 61.6537 113.009 67.1067C112.506 68.3565 111.994 69.6034 111.506 70.859C111.162 71.7171 110.569 72.452 109.804 72.9687C109.039 73.4854 108.137 73.7601 107.214 73.7572C106.291 73.7544 105.391 73.4741 104.629 72.9527C103.867 72.4312 103.278 71.6927 102.94 70.8325L93.4146 47.0101L85.1779 26.4329C82.4892 19.7144 79.8025 12.9968 77.1177 6.28025C76.8624 5.66611 76.7447 5.00334 76.7729 4.33866C76.8011 3.67399 76.9744 3.0236 77.2807 2.43336C77.587 1.84312 78.0188 1.32739 78.5457 0.922558C79.0726 0.517721 79.6817 0.233627 80.33 0.0903092C80.4183 0.0696761 80.5036 0.0402002 80.5918 0.0136719H102.09C102.157 0.034305 102.222 0.0608333 102.29 0.0755713C103.044 0.233233 103.746 0.579001 104.331 1.08085C104.916 1.5827 105.366 2.2244 105.637 2.94653C106.889 6.09062 108.142 9.22588 109.397 12.3523C112.682 20.5623 115.964 28.7723 119.243 36.9824C120.105 39.1459 121.064 41.2711 121.77 43.4936L121.778 44.9526Z" fill="white"/>
</svg>
