<svg width="1338" height="138" viewBox="0 0 1338 138" fill="none" xmlns="http://www.w3.org/2000/svg">
<path fill-rule="evenodd" clip-rule="evenodd" d="M411.43 12.9131C404.594 12.9131 398.989 18.4494 398.989 25.5082C398.989 32.4286 404.594 37.965 411.43 37.965C418.266 37.965 423.871 32.4286 423.871 25.5082C423.871 18.4494 418.266 12.9131 411.43 12.9131ZM422.37 44.3314H400.632V118.933H422.37V44.3314ZM273.758 15.6815H294.949V44.332H311.218V64.2628H294.949V90.5604C294.949 94.4358 297.956 97.4808 301.648 97.4808H311.081V118.657H301.648C286.336 118.657 273.758 106.062 273.758 90.422V64.1244H263.914V44.1936H273.758V15.6815ZM363.03 42.6711C353.187 42.6711 345.394 46.8234 342.386 53.3285V15.6815H320.648V118.796H342.386V76.9963C342.386 68.2766 347.991 62.1867 355.921 62.1867C363.987 62.1867 368.499 67.4462 368.499 76.3043V118.934H390.237V73.5361C390.237 54.159 380.393 42.6711 363.03 42.6711ZM453.404 44.1932V54.4354C456.685 46.9614 464.614 42.6707 474.595 42.5323C476.099 42.5323 478.013 42.6707 480.337 42.9476V63.7088C478.149 63.2936 475.688 63.0168 473.091 63.0168C460.65 63.0168 453.404 70.0756 453.404 82.3939V118.795H431.666V44.1932H453.404ZM541.445 54.0206C539.257 47.5154 530.644 42.9479 519.57 42.9479C509.179 42.9479 500.43 46.685 493.457 54.159C486.621 61.4946 483.067 70.768 483.067 81.5638C483.067 92.3597 486.621 101.495 493.457 109.107C500.43 116.443 509.179 120.18 519.57 120.18C530.644 120.18 539.257 115.612 541.445 109.107V118.934H563.182V15.6815H541.445V54.0206ZM537.07 94.851C533.378 98.4497 528.867 100.111 523.535 100.111C518.339 100.111 513.828 98.3113 510.273 94.851C506.582 91.114 504.805 86.685 504.805 81.5638C504.805 76.4427 506.582 72.0137 510.273 68.4151C513.965 64.678 518.339 62.8787 523.535 62.8787C529.003 62.8787 533.515 64.678 537.07 68.4151C540.898 72.0137 542.812 76.4427 542.812 81.5638C542.812 86.685 540.898 91.114 537.07 94.851ZM625.94 44.6082L645.627 80.0407L658.889 44.3314H680.216L649.865 123.224L625.94 80.3175L602.014 123.224L571.8 44.3314H593.128L606.253 80.0407L625.94 44.6082ZM716.038 42.5323C704.827 42.5323 695.394 46.131 688.011 53.3282C680.765 60.387 677.074 69.7988 677.074 81.425V82.1171C677.074 93.7434 680.765 103.155 688.011 110.214C695.53 117.134 705.101 120.733 717.132 120.733C728.342 120.733 737.502 118.518 744.475 113.951V94.7122C737.639 99.5565 728.889 101.909 718.362 101.909C706.878 101.909 699.358 96.2347 698.948 87.3766H752.951C753.225 85.1621 753.361 82.6707 753.361 80.1794C753.361 69.5219 749.807 60.6638 742.971 53.4666C736.135 46.131 726.975 42.5323 716.038 42.5323ZM698.948 73.1205C699.085 69.6603 700.862 66.7538 704.144 64.4008C707.561 62.0479 711.389 60.8022 716.038 60.8022C724.651 60.8022 731.35 66.477 731.35 73.1205H698.948ZM805.175 42.9479C815.565 42.9479 824.315 46.6849 831.151 54.159C838.123 61.633 841.678 70.6296 841.678 81.4254C841.678 92.2213 838.123 101.356 831.151 108.969C824.315 116.304 815.565 120.041 805.175 120.041C794.101 120.041 785.488 115.474 783.3 108.969V118.796H761.562V15.6815H783.3V54.0206C785.488 47.5154 794.101 42.9479 805.175 42.9479ZM801.21 100.111C806.405 100.111 810.78 98.4496 814.471 94.851C818.163 91.114 819.94 86.6849 819.94 81.5638C819.94 76.4427 818.163 72.0137 814.471 68.415C810.917 64.678 806.405 62.8787 801.21 62.8787C795.878 62.8787 791.366 64.678 787.538 68.415C783.847 72.0137 781.933 76.4427 781.933 81.5638C781.933 86.6849 783.847 91.114 787.538 94.851C791.23 98.3112 795.741 100.111 801.21 100.111Z" fill="white"/>
<path d="M118.267 0C119.639 0.285257 120.935 0.861986 122.066 1.69132C123.332 2.69398 124.302 4.02314 124.872 5.53622C128.468 14.5349 132.065 23.528 135.662 32.5158C139.642 42.5115 143.642 52.5089 147.662 62.5082C149.757 67.7508 151.841 72.9988 153.968 78.2304C154.421 79.3005 154.654 80.4509 154.654 81.6131C154.654 82.7753 154.421 83.9256 153.968 84.9957L135.689 130.596C134.478 133.614 132.286 135.491 129.062 135.98C125.051 136.584 121.463 134.604 120.014 131.086C116.584 122.651 113.23 114.189 109.849 105.732L92.6545 62.7149C87.5636 49.9493 82.4654 37.1873 77.36 24.429C75.6666 20.1925 74.0275 15.9343 72.2582 11.7305C71.771 10.5874 71.5405 9.35105 71.5831 8.10885C71.6258 6.86665 71.9405 5.64903 72.5049 4.54224C73.0694 3.43545 73.8698 2.46655 74.8495 1.70416C75.8292 0.941769 76.9642 0.40454 78.1741 0.13052C78.3206 0.09789 78.4618 0.0435067 78.6029 0H118.267Z" fill="white"/>
<path d="M47.0319 0C47.4823 0.125082 47.9328 0.233848 48.3724 0.386122C49.517 0.743795 50.567 1.35399 51.4452 2.17184C52.3234 2.98969 53.0075 3.99438 53.4471 5.11203C57.373 14.8575 61.2807 24.6103 65.1704 34.3703C69.1071 44.21 73.0438 54.0516 76.9805 63.895C78.9055 68.7206 80.8394 73.5444 82.7825 78.3664C83.2174 79.399 83.4416 80.5085 83.4416 81.6294C83.4416 82.7502 83.2174 83.8597 82.7825 84.8924C80.6115 90.309 78.4405 95.7237 76.2695 101.137C72.2894 111.045 68.3093 120.954 64.3291 130.863C63.7043 132.405 62.636 133.727 61.26 134.661C59.8839 135.594 58.2621 136.097 56.6004 136.105C54.8401 136.136 53.1131 135.622 51.6558 134.632C50.1985 133.642 49.0821 132.225 48.4593 130.574C44.7795 121.237 41.0237 111.926 37.3004 102.605C32.3108 89.9845 27.2958 77.373 22.2555 64.7706C17.1248 51.9433 11.9959 39.1143 6.86873 26.2835C4.9257 21.427 2.99895 16.5597 1.02879 11.7087C0.167989 9.68749 0.126244 7.40987 0.912398 5.35831C1.69855 3.30676 3.25085 1.64243 5.24049 0.71786C5.9623 0.425564 6.70416 0.185659 7.46032 0L47.0319 0Z" fill="white"/>
<path d="M224.508 82.9382C223.423 86.6091 221.794 90.0733 220.41 93.6137C216.405 103.685 212.378 113.752 208.329 123.813C207.401 126.119 206.456 128.419 205.555 130.736C204.921 132.319 203.827 133.675 202.416 134.628C201.004 135.581 199.339 136.088 197.636 136.083C195.934 136.078 194.272 135.561 192.866 134.599C191.461 133.636 190.375 132.274 189.751 130.687L172.177 86.7342L156.98 48.7692C152.019 36.3734 147.062 23.9794 142.109 11.5873C141.638 10.4542 141.42 9.23137 141.472 8.00504C141.524 6.77871 141.844 5.57874 142.409 4.48973C142.975 3.40073 143.771 2.44922 144.743 1.70229C145.715 0.955366 146.839 0.43121 148.035 0.166787C148.198 0.128719 148.356 0.0743356 148.518 0.0253906H188.182C188.307 0.063459 188.426 0.112404 188.551 0.139596C189.942 0.430483 191.238 1.06843 192.317 1.99435C193.397 2.92027 194.226 4.10421 194.728 5.43653C197.036 11.2374 199.348 17.022 201.664 22.7903C207.725 37.9378 213.78 53.0854 219.83 68.233C221.42 72.2247 223.189 76.1457 224.492 80.2462L224.508 82.9382Z" fill="white"/>
<path d="M918.73 43.519V51.0376H883.175V43.519H918.73ZM894.283 25.6685H902.965V98.5742C902.965 101.679 903.499 104.12 904.566 105.899C905.633 107.645 907.024 108.89 908.738 109.634C910.452 110.345 912.279 110.701 914.219 110.701C915.351 110.701 916.321 110.636 917.129 110.507C917.938 110.345 918.649 110.183 919.264 110.022L921.107 117.831C920.266 118.155 919.231 118.446 918.002 118.704C916.774 118.996 915.254 119.141 913.443 119.141C910.274 119.141 907.218 118.446 904.275 117.055C901.365 115.665 898.972 113.595 897.096 110.846C895.22 108.098 894.283 104.686 894.283 100.611V25.6685ZM943.11 71.4589V118.025H934.476V18.6836H943.11V55.2091H943.886C945.632 51.3609 948.333 48.2888 951.987 45.9929C955.673 43.6969 960.33 42.5489 965.957 42.5489C971.001 42.5489 975.432 43.5837 979.248 45.6533C983.063 47.7229 986.039 50.7789 988.173 54.8211C990.307 58.8633 991.374 63.8433 991.374 69.7612V118.025H982.692V70.2947C982.692 64.1506 980.978 59.316 977.55 55.7912C974.154 52.2341 969.562 50.4555 963.774 50.4555C959.796 50.4555 956.255 51.2963 953.151 52.9778C950.046 54.6594 947.589 57.0847 945.778 60.2538C943.999 63.3906 943.11 67.1256 943.11 71.4589ZM1008.65 118.025V43.519H1017.04V54.9666H1017.67C1019.16 51.2154 1021.74 48.1918 1025.43 45.8958C1029.15 43.5675 1033.35 42.4034 1038.04 42.4034C1038.75 42.4034 1039.55 42.4195 1040.42 42.4519C1041.29 42.4842 1042.02 42.5165 1042.6 42.5489V51.3286C1042.21 51.2639 1041.54 51.1669 1040.57 51.0376C1039.6 50.9082 1038.54 50.8435 1037.41 50.8435C1033.53 50.8435 1030.07 51.6682 1027.03 53.3174C1024.02 54.9343 1021.65 57.1818 1019.9 60.0598C1018.16 62.9379 1017.28 66.2202 1017.28 69.9067V118.025H1008.65ZM1079.73 119.578C1072.78 119.578 1066.76 117.961 1061.68 114.727C1056.61 111.461 1052.68 106.95 1049.9 101.194C1047.15 95.4051 1045.77 88.7435 1045.77 81.2088C1045.77 73.7064 1047.15 67.0448 1049.9 61.224C1052.68 55.3708 1056.51 50.795 1061.39 47.4966C1066.31 44.1658 1071.98 42.5004 1078.42 42.5004C1082.46 42.5004 1086.36 43.2441 1090.11 44.7317C1093.86 46.1869 1097.22 48.4344 1100.2 51.4741C1103.21 54.4815 1105.58 58.2812 1107.33 62.8732C1109.07 67.4328 1109.95 72.8333 1109.95 79.0745V83.3431H1051.74V75.7275H1101.12C1101.12 70.9415 1100.15 66.6406 1098.21 62.8247C1096.3 58.9765 1093.63 55.9367 1090.21 53.7054C1086.81 51.4741 1082.88 50.3585 1078.42 50.3585C1073.7 50.3585 1069.54 51.6196 1065.95 54.142C1062.36 56.6643 1059.55 59.9951 1057.51 64.1344C1055.51 68.2736 1054.49 72.8009 1054.46 77.7163V82.2759C1054.46 88.1937 1055.47 93.3678 1057.51 97.7981C1059.58 102.196 1062.51 105.608 1066.29 108.033C1070.08 110.458 1074.55 111.671 1079.73 111.671C1083.25 111.671 1086.34 111.121 1088.99 110.022C1091.68 108.922 1093.92 107.451 1095.74 105.608C1097.58 103.732 1098.97 101.679 1099.91 99.4473L1108.1 102.115C1106.97 105.252 1105.11 108.146 1102.53 110.798C1099.97 113.45 1096.77 115.584 1092.92 117.201C1089.11 118.785 1084.71 119.578 1079.73 119.578ZM1144.32 119.723C1139.82 119.723 1135.72 118.85 1132 117.104C1128.28 115.325 1125.32 112.77 1123.12 109.44C1120.92 106.077 1119.82 102.002 1119.82 97.216C1119.82 93.5295 1120.52 90.425 1121.91 87.9027C1123.3 85.3803 1125.27 83.3107 1127.83 81.6938C1130.38 80.0769 1133.41 78.7996 1136.9 77.8618C1140.39 76.924 1144.24 76.1964 1148.44 75.679C1152.61 75.1616 1156.14 74.7089 1159.02 74.3208C1161.93 73.9328 1164.14 73.3183 1165.66 72.4775C1167.18 71.6368 1167.94 70.2786 1167.94 68.403V66.6567C1167.94 61.5797 1166.42 57.586 1163.38 54.6756C1160.38 51.7328 1156.04 50.2615 1150.38 50.2615C1145.02 50.2615 1140.63 51.4418 1137.24 53.8024C1133.87 56.1631 1131.51 58.9442 1130.16 62.1456L1121.96 59.1867C1123.64 55.1121 1125.97 51.8622 1128.94 49.4368C1131.92 46.9792 1135.25 45.2168 1138.94 44.1496C1142.62 43.0501 1146.36 42.5004 1150.14 42.5004C1152.99 42.5004 1155.95 42.8723 1159.02 43.616C1162.12 44.3598 1165 45.6533 1167.65 47.4966C1170.3 49.3075 1172.45 51.846 1174.1 55.1121C1175.75 58.3459 1176.58 62.4528 1176.58 67.4328V118.025H1167.94V106.238H1167.41C1166.37 108.437 1164.84 110.572 1162.8 112.641C1160.76 114.711 1158.21 116.408 1155.14 117.734C1152.06 119.06 1148.46 119.723 1144.32 119.723ZM1145.48 111.817C1150.08 111.817 1154.05 110.798 1157.42 108.761C1160.78 106.723 1163.37 104.023 1165.18 100.66C1167.02 97.2645 1167.94 93.5295 1167.94 89.4549V78.6864C1167.3 79.3008 1166.21 79.8506 1164.69 80.3356C1163.21 80.8207 1161.48 81.2573 1159.5 81.6453C1157.56 82.001 1155.62 82.3082 1153.68 82.567C1151.74 82.8257 1150 83.052 1148.44 83.246C1144.24 83.7635 1140.65 84.5719 1137.67 85.6714C1134.7 86.7709 1132.42 88.2908 1130.84 90.231C1129.25 92.139 1128.46 94.5966 1128.46 97.604C1128.46 102.131 1130.08 105.64 1133.31 108.13C1136.54 110.588 1140.6 111.817 1145.48 111.817ZM1220.91 119.578C1214.79 119.578 1209.44 117.961 1204.85 114.727C1200.26 111.493 1196.67 106.982 1194.08 101.194C1191.53 95.4051 1190.25 88.6626 1190.25 80.9662C1190.25 73.3022 1191.53 66.5921 1194.08 60.8359C1196.67 55.0475 1200.27 50.5525 1204.9 47.3511C1209.52 44.1173 1214.91 42.5004 1221.05 42.5004C1225.58 42.5004 1229.35 43.3088 1232.35 44.9257C1235.36 46.5103 1237.77 48.4829 1239.58 50.8435C1241.39 53.2042 1242.8 55.5002 1243.8 57.7315H1244.58V18.6836H1253.26V118.025H1244.82V104.201H1243.8C1242.8 106.465 1241.38 108.793 1239.53 111.186C1237.69 113.547 1235.25 115.535 1232.21 117.152C1229.2 118.769 1225.43 119.578 1220.91 119.578ZM1221.92 111.671C1226.74 111.671 1230.85 110.361 1234.24 107.742C1237.64 105.09 1240.23 101.452 1242.01 96.8279C1243.82 92.1713 1244.72 86.8355 1244.72 80.8207C1244.72 74.8705 1243.83 69.6156 1242.05 65.056C1240.28 60.464 1237.69 56.8745 1234.29 54.2875C1230.9 51.6682 1226.77 50.3585 1221.92 50.3585C1216.94 50.3585 1212.74 51.7167 1209.31 54.433C1205.92 57.1171 1203.33 60.7551 1201.55 65.3471C1199.8 69.939 1198.93 75.0969 1198.93 80.8207C1198.93 86.6092 1199.82 91.8317 1201.6 96.4884C1203.38 101.145 1205.97 104.848 1209.36 107.596C1212.79 110.313 1216.98 111.671 1221.92 111.671ZM1322.45 59.8658L1314.54 62.0971C1313.76 59.8658 1312.67 57.8447 1311.24 56.0338C1309.82 54.2228 1307.96 52.7838 1305.66 51.7167C1303.4 50.6495 1300.59 50.1159 1297.22 50.1159C1292.18 50.1159 1288.04 51.3124 1284.81 53.7054C1281.57 56.0984 1279.96 59.1867 1279.96 62.9702C1279.96 66.1717 1281.05 68.7749 1283.25 70.7798C1285.49 72.7524 1288.91 74.3208 1293.54 75.485L1304.79 78.2499C1311.03 79.7697 1315.7 82.1789 1318.81 85.4774C1321.95 88.7758 1323.51 92.9151 1323.51 97.8951C1323.51 102.099 1322.35 105.834 1320.02 109.1C1317.69 112.366 1314.44 114.937 1310.27 116.813C1306.13 118.656 1301.33 119.578 1295.87 119.578C1288.59 119.578 1282.59 117.945 1277.87 114.678C1273.15 111.38 1270.12 106.626 1268.8 100.417L1277.09 98.3802C1278.16 102.81 1280.25 106.157 1283.35 108.421C1286.49 110.685 1290.61 111.817 1295.72 111.817C1301.44 111.817 1306.02 110.539 1309.45 107.984C1312.88 105.397 1314.59 102.164 1314.59 98.2831C1314.59 95.2757 1313.59 92.7534 1311.58 90.7161C1309.58 88.6465 1306.54 87.1266 1302.46 86.1565L1290.29 83.246C1283.82 81.6938 1279.03 79.2362 1275.93 75.873C1272.82 72.5099 1271.27 68.3383 1271.27 63.3583C1271.27 59.2514 1272.39 55.6457 1274.62 52.5413C1276.85 49.4045 1279.92 46.9468 1283.84 45.1682C1287.75 43.3897 1292.21 42.5004 1297.22 42.5004C1304.05 42.5004 1309.5 44.0526 1313.57 47.157C1317.68 50.2291 1320.64 54.4654 1322.45 59.8658Z" fill="white"/>
</svg>
